/* XPM */
static const char *align_bottom_xpm[] = {
/* columns rows colors chars-per-pixel */
"16 16 35 1",
"& c #D9D9D9",
"O c #F7F7F7",
"< c #878787",
"$ c #969696",
"X c #9E9E9E",
"> c #DADADA",
"y c #4C4C4C",
"q c #B5B5B5",
"; c #D3D3D3",
"3 c #818181",
"7 c #CCCCCC",
"o c #F9F9F9",
"e c #C5C5C5",
"% c #E3E3E3",
"w c #737373",
"* c #919191",
", c #CDCDCD",
"1 c #D5D5D5",
". c #A1A1A1",
"@ c #ECECEC",
"6 c #7C7C7C",
"+ c #9A9A9A",
"2 c #C7C7C7",
"= c #F4F4F4",
"r c #B1B1B1",
"- c #DEDEDE",
": c #8C8C8C",
"0 c #C8C8C8",
"# c #E6E6E6",
"  c None",
"5 c #C1C1C1",
"9 c #777777",
"4 c #D1D1D1",
"t c #707070",
"8 c #BBBBBB",
/* pixels */
"                ",
"         .....  ",
"         XoOoX  ",
"         +@#@+  ",
"   $$$$$ $%&%$  ",
"   *O=O* *-;-*  ",
"   :%>%: :>,>:  ",
"   <121< <121<  ",
"   34543 34543  ",
"   67876 67876  ",
"   90q09 90q09  ",
"   werew werew  ",
"   ttttt ttttt  ",
"                ",
"  yyyyyyyyyyyyy ",
"                "
};
