/* XPM */
static const char *align_left_xpm[] = {
/* columns rows colors chars-per-pixel */
"16 16 24 1",
"+ c #F7F7F7",
"o c #9E9E9E",
". c #4C4C4C",
", c #797979",
"& c #E2E2E2",
"= c #909090",
"O c #F9F9F9",
"3 c #C5C5C5",
": c #F3F3F3",
"2 c #747474",
"X c #A1A1A1",
"# c #ECECEC",
"@ c #9A9A9A",
"< c #D6D6D6",
"- c #848484",
"4 c #B1B1B1",
"1 c #C8C8C8",
"$ c #E6E6E6",
"  c None",
"> c #EEEEEE",
"; c #7E7E7E",
"* c #D8D8D8",
"% c #959595",
"5 c #707070",
/* pixels */
"                ",
"                ",
" .              ",
" . XXXXXXXXX    ",
" . oO+++++Oo    ",
" . @#$$$$$#@    ",
" . %&*****&%    ",
" . =========    ",
" .              ",
" . ------------ ",
" . ;:>>>>>>>>:; ",
" . ,<11111111<, ",
" . 234444444432 ",
" . 555555555555 ",
" .              ",
"                "
};
