/* XPM */
static const char *align_top_xpm[] = {
/* columns rows colors chars-per-pixel */
"16 16 34 1",
"* c #D9D9D9",
"+ c #F7F7F7",
"< c #878787",
"% c #969696",
"o c #9E9E9E",
"> c #DADADA",
". c #4C4C4C",
"q c #B5B5B5",
"; c #D3D3D3",
"3 c #818181",
"7 c #CCCCCC",
"O c #F9F9F9",
"e c #C5C5C5",
"& c #E3E3E3",
"w c #737373",
"= c #919191",
", c #CDCDCD",
"1 c #D5D5D5",
"X c #A1A1A1",
"# c #ECECEC",
"6 c #7C7C7C",
"@ c #9A9A9A",
"2 c #C7C7C7",
"r c #B1B1B1",
"- c #DEDEDE",
": c #8C8C8C",
"0 c #C8C8C8",
"$ c #E6E6E6",
"  c None",
"5 c #C1C1C1",
"9 c #777777",
"4 c #D1D1D1",
"t c #707070",
"8 c #BBBBBB",
/* pixels */
"                ",
"  ............. ",
"                ",
"   XXXXX XXXXX  ",
"   oO+Oo oO+Oo  ",
"   @#$#@ @#$#@  ",
"   %&*&% %&*&%  ",
"   =-;-= =-;-=  ",
"   :>,>: :>,>:  ",
"   <121< <121<  ",
"   34543 34543  ",
"   66666 67876  ",
"         90q09  ",
"         werew  ",
"         ttttt  ",
"                "
};
