/* XPM */
static const char *gap_horizontal_xpm[] = {
/* columns rows colors chars-per-pixel */
"16 16 30 1",
"O c #76879D",
"4 c #475A74",
"; c #5183E5",
"% c #6F8097",
"* c #687991",
"1 c #437EF4",
"< c #2A5BBD",
"o c #8494A9",
"2 c #465B74",
"9 c #3C506A",
"5 c #3C506B",
"& c #76869D",
"6 c #384D67",
"8 c #3D516C",
"# c #CED4DC",
"X c #8696AB",
"0 c #344A65",
"7 c #3E526D",
"@ c #73849B",
". c #8797AC",
": c #53667F",
"q c #334863",
"- c #60728A",
"  c None",
"> c #5E93FC",
", c #4D6079",
"+ c #75869C",
"3 c #41556F",
"= c #5A6C85",
"$ c #7D8EA3",
/* pixels */
"                ",
".Xo          O+@",
"##$          %##",
"##&          *##",
"##*          =##",
"##-  ;    ;  :##",
"##= ;>    >; ,##",
"##:<>;;;;;>1<2##",
"##, <1    1< 3##",
"##4  <    <  5##",
"##3          6##",
"##3          6##",
"##3          6##",
"789          0qq",
"                ",
"                "
};
