/* XPM */
static const char *gap_vertical_xpm[] = {
/* columns rows colors chars-per-pixel */
"16 16 35 1",
"e c #495D77",
"7 c #62748B",
": c #425671",
"; c #475A74",
"< c #5183E5",
", c #3D6DCE",
"5 c #6A7C93",
"r c #3E536D",
"3 c #2A5BBD",
"2 c #437EF4",
"t c #5C6E87",
"- c #4B5F78",
"= c #50637C",
"% c #5F7289",
"0 c #556780",
". c #8291A7",
"o c #4E607A",
"q c #51647D",
"# c #6A7B93",
"X c #CED4DC",
"y c #394E68",
"> c #3F536D",
"@ c #6F8197",
"$ c #65768E",
"  c None",
"O c #79899F",
"* c #546780",
"1 c #5E93FC",
"9 c #596B84",
"8 c #5E6F87",
"w c #4D6079",
"6 c #66778F",
"+ c #465974",
"& c #5A6C84",
"4 c #6E7F97",
/* pixels */
" .XXXXXXXXXXXo  ",
" OXXXXXXXXXXX+  ",
" @#$%&*=-;:++>  ",
"       ,        ",
"      <1,       ",
"     <1223      ",
"       2        ",
"       2        ",
"       2        ",
"       2        ",
"     21223      ",
"      21,       ",
"       ,        ",
" 4567890qweee+  ",
" $XXXXXXXXXXXr  ",
" tXXXXXXXXXXXy  "
};
