/* XPM */
static const char *play_xpm[] = {
/* columns rows colors chars-per-pixel */
"16 16 71 1",
"+ c #CCE4B7",
"N c #A1CE7A",
"j c #E7F2D7",
"* c #FFFFFF",
"@ c #ABD38A",
"# c #80BD4C",
"C c #BAD98A",
"J c #CDE5B9",
"% c #C6E1AF",
"G c #D7EABE",
"p c #C4DE95",
"v c #ACD48A",
". c #8DC35E",
"6 c #AFD57C",
"F c #AFD57E",
"z c #BBDA8B",
"a c #C7DF99",
"> c #B6D998",
"O c #D8EBC8",
"g c #FCFDFB",
"3 c #9CCC75",
"S c #84BF52",
"r c #BEDB8E",
"o c #D1E7BE",
"I c #95C86A",
"D c #E2F0D1",
"9 c #E2F0D7",
"8 c #ECF5E0",
"V c #B5D783",
"q c #E5F1D4",
"  c None",
"& c #FDFEFC",
"1 c #FDFEFD",
"y c #F6FAF1",
"$ c #7EBC49",
": c #DEEDD0",
"A c #E8F2D8",
"P c #88C158",
", c #EDF6E3",
"s c #C2DD93",
"w c #B6D886",
"i c #E6F2D6",
"4 c #8DC25E",
"n c #C0DD91",
"c c #DFEECC",
"K c #F7FBF3",
"7 c #C0DD97",
"< c #D8EAC2",
"l c #C5DE97",
"0 c #78B941",
"e c #BCDA8C",
"L c #F3F8EC",
"h c #A4D080",
"f c #D9EBC0",
"M c #F1F8E9",
"t c #D2E7B3",
"x c #B3D682",
"m c #CBE3A8",
"; c #7EBB4A",
"5 c #E3F0D2",
"Z c #C4DF9A",
"H c #FBFDF9",
"u c #8FC461",
"- c #A7D185",
"d c #BDDB8F",
"= c #F4F9EF",
"X c #B8DA9B",
"b c #E6F1D6",
"2 c #FEFEFD",
"k c #CCE1A0",
"B c #E4F1D4",
/* pixels */
"                ",
"     .XoO+@#    ",
"   $%&*****=-   ",
"  ;:*********>  ",
"  %**,<1*****23 ",
" 4&**5678*****90",
" X***qwerty****u",
" o***iepasdfg**h",
" O***jraklzxc**v",
" +***bzslnmM***N",
" @***BVCZA****gS",
" #=**DFGH*****J ",
"  -**KL******=P ",
"   >2*******=I  ",
"    39****gJP   ",
"     0uhvNS     "
};
