/* XPM */
static const char *size_height_xpm[] = {
/* columns rows colors chars-per-pixel */
"16 16 92 1",
"t c #E8E8E8",
"N c #919EB1",
"X c #AAB5C5",
"I c #E6F1FB",
"} c #445670",
"h c #E1E1E1",
"/ c #BCCEE6",
"L c #8A97AB",
"$ c #FFFFFF",
"q c #DAE3ED",
"{ c #51627A",
"z c #F8FBFE",
"! c #7E8CA2",
"_ c #C9D7EA",
"v c #40536C",
"& c #596A81",
": c #ECF0F4",
"] c #728197",
"` c #C2D3E8",
". c #040204",
"' c #394C65",
"P c #EFF4FD",
"g c #EAEAEA",
"k c #4D4D4D",
"E c #DEEBF9",
"S c #7A7A7A",
"A c #898989",
"[ c #5F6F86",
"9 c #FCFDFE",
", c #A0ACBD",
"| c #354963",
"K c #3A4D67",
"6 c #919191",
"( c #76869A",
"B c #F5F9FE",
"@ c #8F9DAF",
") c #D0E0F3",
"i c #99A5B7",
"u c #4E4E4E",
"< c #FAFAFE",
"Z c #3D516A",
"D c #6C6C6C",
"b c #999999",
"R c #E9F1FC",
"1 c #E4EAF1",
"m c #D5D5D5",
"* c #A6B1C2",
"7 c #838383",
"H c #E7F1FC",
"0 c #F6FAFE",
"l c #95A2B4",
"= c #F6F7FA",
"^ c #D1E1F3",
"T c #8693A9",
"U c #C2D2E7",
"w c #43566E",
"e c #B8B8B8",
"M c #C7C7C7",
"n c #E5E5E5",
"F c #8E9BAE",
"Y c #374B65",
"c c #CFDBEA",
"G c #F2F7FD",
"r c #EDEDED",
"2 c #44576F",
"f c #AAAAAA",
"3 c #B9B9B9",
"p c #FAFCFE",
"; c #A3AFBF",
"+ c #A8B3C3",
"C c #CBD8E9",
"# c #A8B3C4",
"~ c #DFEBF9",
"4 c #B2B2B2",
"  c None",
"a c #F3F8FD",
"y c #DFDFDF",
"W c #BFD0E7",
"% c #FDFDFE",
"8 c #9CA8BA",
"> c #455870",
"V c #ECF4FD",
"J c #C7D5E8",
"O c #A9B4C4",
"o c #A9B4C5",
"5 c #A4A4A4",
"x c #EFF5FD",
"j c #D1D1D1",
"d c #41556D",
"Q c #374A64",
"- c #465971",
"s c #D4DEEB",
/* pixels */
"   .  . . XoO+@ ",
"  ...     #$$%& ",
"   .      *$$=- ",
"   .      ;$%:> ",
"          ,$<12 ",
" 34567    890qw ",
" ertyu    ipasd ",
" fghjk    lzxcv ",
" bnmMk    NBVCZ ",
" ASDkk    FGHJK ",
"          LPIUY ",
"   .      TREWQ ",
"   .      !~^/Y ",
"  ...     ()_`' ",
"   .  . . ][{}| ",
"                "
};
