/* XPM */
static const char *size_width_xpm[] = {
/* columns rows colors chars-per-pixel */
"16 16 92 1",
"Q c #E8E8E8",
"% c #919EB1",
". c #AAB5C5",
"i c #E6F1FB",
"M c #445670",
"( c #E1E1E1",
"n c #BCCEE6",
", c #FFFFFF",
"* c #8A97AB",
"k c #DAE3ED",
"d c #51627A",
"2 c #F8FBFE",
"- c #7E8CA2",
"s c #C9D7EA",
"D c #40536C",
"B c #596A81",
"h c #ECF0F4",
": c #728197",
"P c #040204",
"m c #C2D3E8",
"K c #394C65",
"5 c #EFF4FD",
"/ c #EAEAEA",
"_ c #4D4D4D",
"p c #DEEBF9",
"} c #7A7A7A",
"{ c #898989",
"9 c #5F6F86",
"< c #FCFDFE",
"+ c #A0ACBD",
"L c #354963",
"G c #3A4D67",
"T c #919191",
"; c #76869A",
"3 c #F5F9FE",
"N c #8F9DAF",
"8 c #D0E0F3",
"~ c #4E4E4E",
"# c #99A5B7",
"w c #FAFAFE",
"F c #3D516A",
"| c #6C6C6C",
"` c #999999",
"j c #E4EAF1",
"6 c #E9F1FC",
"] c #D5D5D5",
"o c #A6B1C2",
"R c #838383",
"u c #E7F1FC",
"e c #F6FAFE",
"g c #F6F7FA",
"$ c #95A2B4",
"a c #D1E1F3",
"v c #C2D2E7",
"= c #8693A9",
"A c #43566E",
"E c #B8B8B8",
"[ c #C7C7C7",
"' c #E5E5E5",
"& c #8E9BAE",
"H c #374B65",
"z c #CFDBEA",
"4 c #F2F7FD",
"W c #EDEDED",
"Z c #44576F",
"^ c #AAAAAA",
"I c #B9B9B9",
"1 c #FAFCFE",
"O c #A3AFBF",
"f c #A8B3C3",
"x c #CBD8E9",
"X c #A8B3C4",
"7 c #DFEBF9",
"U c #B2B2B2",
"  c None",
"r c #F3F8FD",
"! c #DFDFDF",
"b c #BFD0E7",
"q c #FDFDFE",
"@ c #9CA8BA",
"C c #455870",
"y c #ECF4FD",
"c c #C7D5E8",
"0 c #A9B4C4",
"> c #A9B4C5",
"Y c #A4A4A4",
"t c #EFF5FD",
") c #D1D1D1",
"S c #41556D",
"J c #374A64",
"V c #465971",
"l c #D4DEEB",
/* pixels */
"                ",
".XoO+@#$%&*=-;: ",
">,,,,<123456789 ",
"0,,qwertyuipasd ",
"fqghjklzxcvbnmM ",
"NBVCZASDFGHJHKL ",
"                ",
"P             P ",
"                ",
"P             P ",
"     IUYTR      ",
" P   EWQ!~   P  ",
"PPPP ^/()_ PPPP ",
" P   `'][_   P  ",
"     {}|__      ",
"                "
};
