/* XPM */
static const char *size_width_and_height_xpm[] = {
/* columns rows colors chars-per-pixel */
"16 16 4 1",
"  c Black",
"X c #0151CD",
"o c #CDC6BB",
". c None",
/* pixels */
"     ..X..     .",
" .....XXX..... .",
" ......X...... .",
" ......X...... .",
" ............. .",
".....     ......",
".X... ooo ...X..",
"XXXX. ooo .XXXX.",
".X... ooo ...X..",
".....     ......",
" ............. .",
" ......X...... .",
" ......X...... .",
" .....XXX..... .",
"     ..X..     .",
"................"
};
